<svg width="16" height="20" viewBox="0 0 16 20" fill="none" xmlns="http://www.w3.org/2000/svg">
<path d="M7.9999 11.1917C8.34134 11.1917 8.67943 11.1244 8.99488 10.9938C9.31033 10.8631 9.59695 10.6716 9.83838 10.4302C10.0798 10.1887 10.2713 9.90212 10.402 9.58668C10.5327 9.27123 10.5999 8.93314 10.5999 8.5917C10.5999 8.25026 10.5327 7.91217 10.402 7.59672C10.2713 7.28128 10.0798 6.99465 9.83838 6.75322C9.59695 6.51179 9.31033 6.32027 8.99488 6.18961C8.67943 6.05895 8.34134 5.9917 7.9999 5.9917C7.31034 5.9917 6.64902 6.26563 6.16142 6.75322C5.67383 7.24082 5.3999 7.90214 5.3999 8.5917C5.3999 9.28126 5.67383 9.94258 6.16142 10.4302C6.64902 10.9178 7.31034 11.1917 7.9999 11.1917V11.1917Z" stroke="#828282" stroke-width="1.5"/>
<path d="M1.01675 7.07508C2.65842 -0.141583 13.3501 -0.13325 14.9834 7.08342C15.9417 11.3168 13.3084 14.9001 11.0001 17.1168C10.1935 17.8947 9.11654 18.3294 7.99592 18.3294C6.87529 18.3294 5.79835 17.8947 4.99175 17.1168C2.69175 14.9001 0.0584164 11.3084 1.01675 7.07508V7.07508Z" stroke="#828282" stroke-width="1.5"/>
</svg>
