<svg width="20" height="19" viewBox="0 0 20 19" fill="none" xmlns="http://www.w3.org/2000/svg">
<path d="M12.4998 1.66675H7.49984C3.33317 1.66675 1.6665 3.33341 1.6665 7.50008V12.5001C1.6665 15.6501 2.6165 17.3751 4.88317 18.0167C5.0665 15.8501 7.2915 14.1417 9.99984 14.1417C12.7082 14.1417 14.9332 15.8501 15.1165 18.0167C17.3832 17.3751 18.3332 15.6501 18.3332 12.5001V7.50008C18.3332 3.33341 16.6665 1.66675 12.4998 1.66675ZM9.99984 11.8084C8.34984 11.8084 7.0165 10.4667 7.0165 8.81675C7.0165 7.16675 8.34984 5.83341 9.99984 5.83341C11.6498 5.83341 12.9832 7.16675 12.9832 8.81675C12.9832 10.4667 11.6498 11.8084 9.99984 11.8084Z" stroke="#828282" stroke-width="1.5" stroke-linecap="round" stroke-linejoin="round"/>
</svg>
