<svg width="20" height="18" viewBox="0 0 20 18" fill="none" xmlns="http://www.w3.org/2000/svg">
<path d="M10.834 8.2915H5.83398" stroke="#4F4F4F" stroke-width="1.5" stroke-linecap="round" stroke-linejoin="round"/>
<path d="M1.66699 8.2917V4.4417C1.66699 2.7417 3.04199 1.3667 4.74199 1.3667H9.42533C11.1253 1.3667 12.5003 2.42503 12.5003 4.12503" stroke="#4F4F4F" stroke-width="1.5" stroke-linecap="round" stroke-linejoin="round"/>
<path d="M14.567 9.16667C14.1503 9.56667 13.9503 10.1833 14.117 10.8167C14.3253 11.5917 15.092 12.0833 15.892 12.0833H16.667V13.2917C16.667 15.1333 15.1753 16.625 13.3337 16.625H5.00033C3.15866 16.625 1.66699 15.1333 1.66699 13.2917V7.45833C1.66699 5.61667 3.15866 4.125 5.00033 4.125H13.3337C15.167 4.125 16.667 5.625 16.667 7.45833V8.66667H15.767C15.3003 8.66667 14.8753 8.85 14.567 9.16667V9.16667Z" stroke="#4F4F4F" stroke-width="1.5" stroke-linecap="round" stroke-linejoin="round"/>
<path d="M18.3338 9.5165V11.2332C18.3338 11.6998 17.9505 12.0832 17.4755 12.0832H15.8672C14.9672 12.0832 14.1422 11.4248 14.0672 10.5248C14.0172 9.99984 14.2172 9.50817 14.5672 9.1665C14.8755 8.84984 15.3005 8.6665 15.7672 8.6665H17.4755C17.9505 8.6665 18.3338 9.04984 18.3338 9.5165V9.5165Z" stroke="#4F4F4F" stroke-width="1.5" stroke-linecap="round" stroke-linejoin="round"/>
</svg>
