<svg width="18" height="20" viewBox="0 0 18 20" fill="none" xmlns="http://www.w3.org/2000/svg">
<path d="M9.00016 16.4168C9.97262 16.4168 10.9053 16.0305 11.5929 15.3429C12.2805 14.6553 12.6668 13.7226 12.6668 12.7502C12.6668 11.7777 12.2805 10.8451 11.5929 10.1574C10.9053 9.4698 9.97262 9.0835 9.00016 9.0835C8.0277 9.0835 7.09507 9.4698 6.40744 10.1574C5.7198 10.8451 5.3335 11.7777 5.3335 12.7502C5.3335 13.7226 5.7198 14.6553 6.40744 15.3429C7.09507 16.0305 8.0277 16.4168 9.00016 16.4168V16.4168Z" stroke="#2F80ED" stroke-width="1.5" stroke-miterlimit="10" stroke-linecap="round" stroke-linejoin="round"/>
<path d="M7.57031 12.7504L8.16615 13.3462C8.34031 13.5204 8.62448 13.5295 8.79865 13.3554L10.4303 11.8521" stroke="#2F80ED" stroke-width="1.5" stroke-linecap="round" stroke-linejoin="round"/>
<path d="M6.25009 19.1668H11.7501C15.4351 19.1668 16.0951 17.691 16.2876 15.8943L16.9751 10.3943C17.2226 8.15766 16.5809 6.3335 12.6668 6.3335H5.33342C1.41925 6.3335 0.777585 8.15766 1.02509 10.3943L1.71259 15.8943C1.90509 17.691 2.56509 19.1668 6.25009 19.1668Z" stroke="#2F80ED" stroke-width="1.5" stroke-miterlimit="10" stroke-linecap="round" stroke-linejoin="round"/>
<path d="M4.875 6.03108V5.14191C4.875 3.07941 6.53417 1.05357 8.59667 0.861075C9.16974 0.804771 9.74826 0.869076 10.295 1.04985C10.8417 1.23063 11.3445 1.52387 11.7711 1.9107C12.1976 2.29753 12.5385 2.76939 12.7717 3.2959C13.0048 3.82241 13.1252 4.39191 13.125 4.96774V6.23274" stroke="#2F80ED" stroke-width="1.5" stroke-miterlimit="10" stroke-linecap="round" stroke-linejoin="round"/>
</svg>
