<svg width="20" height="20" viewBox="0 0 20 20" fill="none" xmlns="http://www.w3.org/2000/svg">
<path d="M13.2173 1.59424H6.78234C4.49984 1.59424 3.99567 2.73091 3.70234 4.12424L2.6665 9.08341H17.3332L16.2973 4.12424C16.004 2.73091 15.4998 1.59424 13.2173 1.59424V1.59424Z" stroke="#2F80ED" stroke-width="1.5" stroke-linecap="round" stroke-linejoin="round"/>
<path d="M19.1575 17.1685C19.2583 18.241 18.3967 19.1668 17.2967 19.1668H15.5733C14.5833 19.1668 14.4458 18.7452 14.2717 18.2227L14.0883 17.6727C13.8317 16.921 13.6667 16.4168 12.3467 16.4168H7.65334C6.33334 16.4168 6.14084 16.9852 5.91167 17.6727L5.72834 18.2227C5.55417 18.7452 5.41667 19.1668 4.42667 19.1668H2.70334C1.60334 19.1668 0.741669 18.241 0.842503 17.1685L1.35584 11.586C1.48417 10.211 1.75 9.0835 4.15167 9.0835H15.8483C18.25 9.0835 18.5158 10.211 18.6442 11.586L19.1575 17.1685Z" stroke="#2F80ED" stroke-width="1.5" stroke-linecap="round" stroke-linejoin="round"/>
<path d="M2.66667 6.3335H1.75" stroke="#2F80ED" stroke-width="1.5" stroke-linecap="round" stroke-linejoin="round"/>
<path d="M18.2502 6.3335H17.3335" stroke="#2F80ED" stroke-width="1.5" stroke-linecap="round" stroke-linejoin="round"/>
<path d="M10 1.75V3.58333" stroke="#2F80ED" stroke-width="1.5" stroke-linecap="round" stroke-linejoin="round"/>
<path d="M8.625 3.5835H11.375" stroke="#2F80ED" stroke-width="1.5" stroke-linecap="round" stroke-linejoin="round"/>
<path d="M4.5 12.75H7.25" stroke="#2F80ED" stroke-width="1.5" stroke-linecap="round" stroke-linejoin="round"/>
<path d="M12.75 12.75H15.5" stroke="#2F80ED" stroke-width="1.5" stroke-linecap="round" stroke-linejoin="round"/>
</svg>
