<svg width="20" height="20" viewBox="0 0 20 20" fill="none" xmlns="http://www.w3.org/2000/svg">
<path d="M9.97233 19.1668C15.0351 19.1668 19.139 15.0629 19.139 10.0002C19.139 4.93741 15.0351 0.833496 9.97233 0.833496C4.90958 0.833496 0.805664 4.93741 0.805664 10.0002C0.805664 15.0629 4.90958 19.1668 9.97233 19.1668V19.1668Z" stroke="#2F80ED" stroke-width="1.5" stroke-linecap="round" stroke-linejoin="round"/>
<path d="M10 14.125C11.094 14.125 12.1432 13.6904 12.9168 12.9168C13.6904 12.1432 14.125 11.094 14.125 10C14.125 8.90598 13.6904 7.85677 12.9168 7.08318C12.1432 6.3096 11.094 5.875 10 5.875C8.90598 5.875 7.85677 6.3096 7.08318 7.08318C6.3096 7.85677 5.875 8.90598 5.875 10C5.875 11.094 6.3096 12.1432 7.08318 12.9168C7.85677 13.6904 8.90598 14.125 10 14.125V14.125Z" stroke="#2F80ED" stroke-width="1.5" stroke-linecap="round" stroke-linejoin="round"/>
<path d="M3.49121 3.51953L6.73621 6.75536" stroke="#2F80ED" stroke-width="1.5" stroke-linecap="round" stroke-linejoin="round"/>
<path d="M3.4917 16.4809L6.7367 13.2451" stroke="#2F80ED" stroke-width="1.5" stroke-linecap="round" stroke-linejoin="round"/>
<path d="M16.4623 16.4809L13.2173 13.2451" stroke="#2F80ED" stroke-width="1.5" stroke-linecap="round" stroke-linejoin="round"/>
<path d="M16.4623 3.51953L13.2173 6.75536" stroke="#2F80ED" stroke-width="1.5" stroke-linecap="round" stroke-linejoin="round"/>
</svg>
