<svg width="20" height="20" viewBox="0 0 20 20" fill="none" xmlns="http://www.w3.org/2000/svg">
<path d="M5.85645 15.8208L8.69811 18.0208C9.06478 18.3874 9.88978 18.5708 10.4398 18.5708H13.9231C15.0231 18.5708 16.2148 17.7458 16.4898 16.6458L18.6898 9.9541C19.1481 8.67076 18.3231 7.57076 16.9481 7.57076H13.2814C12.7314 7.57076 12.2731 7.11243 12.3648 6.47076L12.8231 3.53743C13.0064 2.71243 12.4564 1.79576 11.6314 1.52076C10.8981 1.24576 9.98145 1.61243 9.61478 2.16243L5.85645 7.7541" stroke="#2F80ED" stroke-width="1.5" stroke-miterlimit="10"/>
<path d="M1.18164 15.8207V6.83737C1.18164 5.55404 1.73164 5.0957 3.01497 5.0957H3.93164C5.21497 5.0957 5.76497 5.55404 5.76497 6.83737V15.8207C5.76497 17.104 5.21497 17.5624 3.93164 17.5624H3.01497C1.73164 17.5624 1.18164 17.104 1.18164 15.8207Z" stroke="#2F80ED" stroke-width="1.5" stroke-linecap="round" stroke-linejoin="round"/>
</svg>
