<svg width="20" height="20" viewBox="0 0 20 20" fill="none" xmlns="http://www.w3.org/2000/svg">
<path d="M8.23051 1.58519L1.87801 6.67269C1.16301 7.24102 0.704673 8.44185 0.860507 9.34019L2.07967 16.6369C2.29967 17.9385 3.54634 18.9927 4.86634 18.9927H15.133C16.4438 18.9927 17.6997 17.9294 17.9197 16.6369L19.1388 9.34019C19.2855 8.44185 18.8272 7.24102 18.1213 6.67269L11.7688 1.59435C10.788 0.806021 9.20217 0.806021 8.23051 1.58519V1.58519Z" stroke="#2F80ED" stroke-width="1.5" stroke-linecap="round" stroke-linejoin="round"/>
<path d="M8.05664 12.182C9.22081 11.0728 10.7791 11.0728 11.9433 12.182" stroke="#2F80ED" stroke-width="1.5" stroke-linecap="round" stroke-linejoin="round"/>
<path d="M13.886 10.2387C13.4137 9.77461 12.8687 9.39068 12.2727 9.10208C11.5625 8.75822 10.7838 8.57959 9.99477 8.57959C9.20576 8.57959 8.42699 8.75822 7.71685 9.10208C7.14852 9.37708 6.60768 9.75291 6.10352 10.2387" stroke="#2F80ED" stroke-width="1.5" stroke-linecap="round" stroke-linejoin="round"/>
<path d="M9.99512 14.5835H10.0035" stroke="#2F80ED" stroke-width="2" stroke-linecap="round" stroke-linejoin="round"/>
</svg>
